# xmcd
#
# Track frame offsets:
#	150
#	16189
#	33204
#	47112
#	59365
#	71370
#	84868
#	103182
#	114384
#	125305
#
# Disc length: 1844
#
# Revision: 1
# Processed by: cddbd v1.5.1PL0 Copyright (c) Steve Scherf et al.
# Submitted via: ExactAudioCopy v0.90b3
# Normalized: r0:DSETVAR1
#
DISCID=7507320a
DTITLE=Various Artist - Classic Country
DYEAR=2000
DGENRE=Country
TTITLE0=Brenda Lee - Johnny One Time
TTITLE1=Johnny Cash - Sunday Morning Comming Down
TTITLE2=Johnny Paycheck - Almost Persuaded
TTITLE3=Billie Jo Spears - You Never Can Tell
TTITLE4=George Jones - Take The World But Give Me Jesus
TTITLE5=Freddy Fender - Just Because
TTITLE6=Tom T. Hall - I Like Beer
TTITLE7=Loretta Lynn - Hey Loretta
TTITLE8=Willie Nelson - Go Away
TTITLE9=Roy Acuff - When I Lay My Burden Down
EXTD=
EXTT0=
EXTT1=
EXTT2=
EXTT3=
EXTT4=
EXTT5=
EXTT6=
EXTT7=
EXTT8=
EXTT9=
PLAYORDER=
